<?xml version="1.0" encoding="iso-8859-1"?>
<!-- Generator: Adobe Illustrator 19.0.0, SVG Export Plug-In . SVG Version: 6.00 Build 0)  -->
<svg version="1.1" id="Capa_1" xmlns="http://www.w3.org/2000/svg" xmlns:xlink="http://www.w3.org/1999/xlink" x="0px" y="0px"
	 viewBox="0 0 512 512" style="enable-background:new 0 0 512 512;" xml:space="preserve">
<g>
	<g>
		<path d="M256,211c-24.814,0-45,20.186-45,45c0,24.814,20.186,45,45,45c24.814,0,45-20.186,45-45C301,231.186,280.814,211,256,211z
			"/>
	</g>
</g>
<g>
	<g>
		<path d="M256,0C115.39,0,0,115.39,0,256s115.39,256,256,256s256-115.39,256-256S396.61,0,256,0z M376,241c8.291,0,15,6.709,15,15
			c0,74.443-60.557,135-135,135c-8.291,0-15-6.709-15-15c0-8.291,6.709-15,15-15c57.891,0,105-47.109,105-105
			C361,247.709,367.709,241,376,241z M76,271c-8.291,0-15-6.709-15-15c0-107.52,87.48-195,195-195c8.291,0,15,6.709,15,15
			s-6.709,15-15,15c-90.981,0-165,74.019-165,165C91,264.291,84.291,271,76,271z M136,271c-8.291,0-15-6.709-15-15
			c0-74.443,60.557-135,135-135c8.291,0,15,6.709,15,15s-6.709,15-15,15c-57.891,0-105,47.109-105,105
			C151,264.291,144.291,271,136,271z M181,256c0-41.353,33.647-75,75-75c41.353,0,75,33.647,75,75c0,41.353-33.647,75-75,75
			C214.647,331,181,297.353,181,256z M256,451c-8.291,0-15-6.709-15-15c0-8.291,6.709-15,15-15c90.981,0,165-74.019,165-165
			c0-8.291,6.709-15,15-15c8.291,0,15,6.709,15,15C451,363.52,363.52,451,256,451z"/>
	</g>
</g>
<g>
</g>
<g>
</g>
<g>
</g>
<g>
</g>
<g>
</g>
<g>
</g>
<g>
</g>
<g>
</g>
<g>
</g>
<g>
</g>
<g>
</g>
<g>
</g>
<g>
</g>
<g>
</g>
<g>
</g>
</svg>
